<svg viewBox="0 0 800 300" xmlns="http://www.w3.org/2000/svg">
  <!-- خلفية بيضاء -->
  <rect width="800" height="300" fill="white"/>
  
  <!-- شريط فيزا المائل -->
  <path d="M0 0 L800 0 L700 300 L0 300 Z" fill="#1A1F71"/>
  
  <!-- نص فيزا -->
  <path d="M250 100 L200 200 L180 200 L230 100 Z" fill="#F7B600"/>
  <path d="M270 100 L245 200 L225 200 L250 100 Z" fill="#F7B600"/>
  <path d="M320 100 C320 120, 290 140, 290 160 C290 180, 310 190, 330 190 L335 200 C315 205, 270 205, 270 160 C270 120, 300 100, 320 100 Z" fill="#F7B600"/>
  <path d="M370 100 L345 200 L325 200 L350 100 Z" fill="#F7B600"/>
  
  <!-- النجوم -->
  <circle cx="400" cy="120" r="5" fill="#F7B600"/>
  <circle cx="420" cy="150" r="5" fill="#F7B600"/>
  <circle cx="440" cy="180" r="5" fill="#F7B600"/>
</svg>